<?xml version="1.0" encoding="UTF-8"?>
<svg version="1.1" xmlns="http://www.w3.org/2000/svg" width="390" height="390">
<path d="M0 0 C0.99 0.33 1.98 0.66 3 1 C4.20352794 3.69920515 5.2138954 6.34083713 6.1875 9.125 C10.1986445 20.11872739 14.60178267 30.93264156 19.0625 41.75 C19.74181471 43.3998883 20.42109585 45.04979042 21.1003418 46.69970703 C22.42114703 49.90623718 23.74364333 53.11206296 25.06738281 56.31738281 C26.35064464 59.42501762 27.63125405 62.53372174 28.90917969 65.64355469 C32.24504522 73.76082565 35.60846825 81.86405335 39.05859375 89.93359375 C40.88980056 94.25162462 42.6197521 98.59564619 44.28515625 102.98046875 C47.14353311 110.46166607 50.23089342 117.84029347 53.33078003 125.22366333 C58.09391012 136.57128143 62.82696758 147.92656868 67.3503418 159.37231445 C69.52757053 164.86716805 71.80966859 170.31204271 74.125 175.75 C76.72342953 181.85998789 79.15150861 187.99894334 81.43017578 194.23706055 C84.09360373 201.42340645 87.0571903 208.48736947 90 215.5625 C90.26411682 216.19767548 90.52823364 216.83285095 90.800354 217.48727417 C91.58297294 219.36915172 92.36568844 221.25098907 93.1484375 223.1328125 C95.33504209 228.39008977 97.50675751 233.65229091 99.625 238.9375 C100.05039062 239.99839844 100.47578125 241.05929687 100.9140625 242.15234375 C102.02926488 245.07674137 103.0330096 248.02362129 104 251 C101 252 101 252 98.8203125 251.20703125 C81.15067815 242.06491608 64.0431093 231.8310198 47.125 221.375 C44.75150315 219.91415862 42.37652767 218.45589561 40 217 C39.05141113 216.41814941 38.10282227 215.83629883 37.12548828 215.23681641 C33.81739678 213.21277682 30.50298803 211.19939733 27.1875 209.1875 C26.11322754 208.52862793 25.03895508 207.86975586 23.93212891 207.19091797 C12.66746012 200.38025261 2.57353524 196.4257005 -10.83984375 199.69140625 C-13.34777699 200.63831943 -15.64359259 201.7229537 -18 203 C-18.83015625 203.44730469 -19.6603125 203.89460937 -20.515625 204.35546875 C-25.77736131 207.36563384 -30.51457214 210.82452201 -35.1875 214.6796875 C-37 216 -37 216 -39 216 C-39 216.66 -39 217.32 -39 218 C-40.94921875 219.4453125 -40.94921875 219.4453125 -43.6875 221.125 C-44.70457031 221.75277344 -45.72164062 222.38054687 -46.76953125 223.02734375 C-47.83558594 223.67832031 -48.90164062 224.32929688 -50 225 C-50.95261719 225.59941406 -51.90523437 226.19882812 -52.88671875 226.81640625 C-62.30793349 232.71544136 -71.96337951 238.20154786 -81.640625 243.66699219 C-83.08472864 244.48288684 -84.52771579 245.30076659 -85.96875 246.12207031 C-87.51717536 247.00449681 -89.07078088 247.87781852 -90.625 248.75 C-91.42164062 249.19859375 -92.21828125 249.6471875 -93.0390625 250.109375 C-95 251 -95 251 -98 251 C-97.37469079 247.44596693 -96.43770012 244.2424418 -95.13671875 240.87890625 C-94.75112793 239.87778809 -94.36553711 238.87666992 -93.96826172 237.84521484 C-93.54561035 236.76191895 -93.12295898 235.67862305 -92.6875 234.5625 C-92.01871826 232.83700928 -92.01871826 232.83700928 -91.33642578 231.07666016 C-86.55503869 218.78142835 -81.64534668 206.53743066 -76.72607422 194.296875 C-73.45615488 186.15908168 -70.19632935 178.01723946 -66.9375 169.875 C-66.59455902 169.01819641 -66.25161804 168.16139282 -65.89828491 167.27862549 C-60.30393869 153.29762947 -54.76707323 139.29545625 -49.28125 125.27148438 C-47.98263374 121.95565781 -46.67955559 118.64161902 -45.375 115.328125 C-39.84635593 101.28347169 -34.36183389 87.22235206 -28.90097046 73.15124512 C-25.17258475 63.54670762 -21.40762744 53.95941535 -17.55395508 44.40429688 C-15.38147685 39.00175652 -13.31961371 33.5645635 -11.2980957 28.10400391 C-9.17939114 22.41030144 -6.94438445 16.76519965 -4.6875 11.125 C-4.33751953 10.24972656 -3.98753906 9.37445313 -3.62695312 8.47265625 C-1.13539567 2.27079133 -1.13539567 2.27079133 0 0 Z M-1 54 C-1.42047607 55.0825708 -1.84095215 56.1651416 -2.27416992 57.28051758 C-27.48379348 122.1628509 -27.48379348 122.1628509 -34.765625 136.46875 C-36.14610477 138.83024278 -36.14610477 138.83024278 -36 141 C-36.68707031 140.96519531 -37.37414062 140.93039063 -38.08203125 140.89453125 C-38.98308594 140.86746094 -39.88414062 140.84039062 -40.8125 140.8125 C-41.70582031 140.77769531 -42.59914063 140.74289063 -43.51953125 140.70703125 C-46.5976397 141.07058737 -47.07945048 141.61354227 -49 144 C-49.94597545 146.05405718 -50.80180975 148.15034346 -51.6015625 150.265625 C-51.83965134 150.88774872 -52.07774017 151.50987244 -52.32304382 152.15084839 C-53.09813915 154.18103886 -53.86187016 156.21528479 -54.625 158.25 C-55.42343934 160.35773244 -56.22404285 162.46463354 -57.0249176 164.57144165 C-57.5639985 165.99000049 -58.10211161 167.40892747 -58.63926697 168.82821655 C-60.31295913 173.23940477 -62.0433318 177.62282421 -63.82421875 181.9921875 C-64.4581958 183.55791504 -64.4581958 183.55791504 -65.10498047 185.15527344 C-65.89253915 187.09216463 -66.68932404 189.02533752 -67.49658203 190.95410156 C-67.84446777 191.81745117 -68.19235352 192.68080078 -68.55078125 193.5703125 C-68.85669189 194.31039551 -69.16260254 195.05047852 -69.4777832 195.81298828 C-70.117385 198.49160113 -69.7003127 200.36376708 -69 203 C-68.01 203.33 -67.02 203.66 -66 204 C-63.36001108 201.66705276 -62.11155916 199.42800616 -60.73046875 196.203125 C-60.31949951 195.25123291 -59.90853027 194.29934082 -59.48510742 193.31860352 C-59.05689697 192.30596436 -58.62868652 191.2933252 -58.1875 190.25 C-57.74317627 189.21609131 -57.29885254 188.18218262 -56.84106445 187.11694336 C-54.35504958 181.30266462 -51.97378915 175.45762289 -49.6875 169.5625 C-44.12234297 155.46932768 -44.12234297 155.46932768 -38 152 C-34.22804958 150.74268319 -30.68393177 150.84516558 -26.75390625 150.82421875 C-25.09569035 150.80102612 -23.43748717 150.77690902 -21.77929688 150.75195312 C-19.16779997 150.71680545 -16.55677332 150.68747062 -13.94506836 150.67407227 C-11.42243835 150.65860185 -8.90117521 150.618409 -6.37890625 150.57421875 C-5.20999596 150.57708138 -5.20999596 150.57708138 -4.01747131 150.58000183 C-0.40409729 150.49846196 1.56321692 150.36392634 4.38720703 148.01098633 C4.91942871 147.34736084 5.45165039 146.68373535 6 146 C9.00378554 144.96828833 11.83747176 144.77490902 15 145 C18.0625 146.5 18.0625 146.5 20 149 C20.79720496 153.38462729 20.51613309 155.24192952 18 158.9375 C13.84919686 161.79117716 11.9698922 161.7099846 7 161 C6.43539062 160.33790527 5.87078125 159.67581055 5.2890625 158.99365234 C1.94885367 156.08450715 -1.34494025 156.46311023 -5.5625 156.5390625 C-6.39080322 156.53997894 -7.21910645 156.54089539 -8.07250977 156.5418396 C-9.8208592 156.54787194 -11.56919847 156.56360706 -13.31738281 156.58837891 C-15.9906226 156.62487199 -18.66247467 156.62939824 -21.3359375 156.62890625 C-23.03647029 156.63873858 -24.7369937 156.65039609 -26.4375 156.6640625 C-27.23551025 156.66628815 -28.03352051 156.66851379 -28.85571289 156.67080688 C-34.31909193 156.63008787 -34.31909193 156.63008787 -39 159 C-40.56384958 161.71049298 -40.56384958 161.71049298 -41.8125 165.03515625 C-42.06330322 165.6507692 -42.31410645 166.26638214 -42.57250977 166.90065002 C-43.39508761 168.92864873 -44.19793487 170.96381055 -45 173 C-45.5640007 174.40783189 -46.12911864 175.81521668 -46.6953125 177.22216797 C-46.98116211 177.93368011 -47.26701172 178.64519226 -47.56152344 179.37826538 C-47.8505957 180.09777374 -48.13966797 180.8172821 -48.4375 181.55859375 C-49.0287867 183.03054238 -49.61993155 184.502548 -50.2109375 185.97460938 C-50.50581055 186.70832764 -50.80068359 187.4420459 -51.10449219 188.19799805 C-51.70582042 189.70181045 -52.30276871 191.20738106 -52.89550781 192.71459961 C-56.05812327 200.74124852 -58.91254315 207.7041927 -65 214 C-65.78665428 215.99657199 -65.78665428 215.99657199 -66 218 C-65.67 218.66 -65.34 219.32 -65 220 C-61.07067886 220.4791855 -59.07543531 220.03771766 -55.5 218.25 C-46.66206995 211.32713523 -42.94063747 196.29237827 -38.45092773 186.1081543 C-37.61189011 184.20762321 -36.76897163 182.30884774 -35.92578125 180.41015625 C-35.43505127 179.29777588 -34.94432129 178.18539551 -34.4387207 177.03930664 C-33.09971561 174.21064985 -31.79454574 171.56530635 -30 169 C-27.08203125 168.29296875 -27.08203125 168.29296875 -23.8125 168.1875 C-22.18248047 168.11595703 -22.18248047 168.11595703 -20.51953125 168.04296875 C-19.68808594 168.02878906 -18.85664063 168.01460938 -18 168 C-19.53107683 171.75113824 -21.10422285 175.27292889 -23.1875 178.75 C-25.24353416 181.81647462 -25.24353416 181.81647462 -25 185 C-24.35417969 184.7834375 -23.70835937 184.566875 -23.04296875 184.34375 C-7.23121085 179.67160266 8.92294407 180.53680301 23.4921875 188.36328125 C33.08460071 193.70521629 42.2455615 199.68508909 51.31298828 205.86425781 C55.48076415 208.67011792 59.74528276 211.32863907 64 214 C64.99 213.34 65.98 212.68 67 212 C66.75697718 208.46682207 66.23359281 207.22131864 63.62109375 204.74609375 C62.57050781 203.98425781 61.51992188 203.22242188 60.4375 202.4375 C59.86974854 202.01984375 59.30199707 201.6021875 58.71704102 201.171875 C57.48165417 200.26311531 56.24246007 199.3595142 55 198.46044922 C52.88616605 196.91687565 50.80066336 195.3402378 48.71875 193.75390625 C47.29174736 192.66916468 45.86466534 191.58452751 44.4375 190.5 C43.75937256 189.9836499 43.08124512 189.4672998 42.38256836 188.93530273 C41.73940674 188.45134033 41.09624512 187.96737793 40.43359375 187.46875 C39.86697021 187.04013672 39.30034668 186.61152344 38.71655273 186.16992188 C36.88214691 184.91967686 35.00429414 183.94938806 33 183 C33.33 182.01 33.66 181.02 34 180 C40.30419498 180.28655432 44.8430578 182.79934909 50.328125 185.8203125 C53.02033709 187.36681111 53.02033709 187.36681111 56 186 C54.15261479 179.99534482 51.88147805 174.47932885 49.0625 168.875 C44.94924629 160.45409147 41.51131566 151.81726033 38.1875 143.0625 C33.7661283 131.4191265 29.08843722 119.93504001 24.09643555 108.52368164 C20.85209438 101.09072972 17.85194028 93.59225418 15 86 C12.38655811 88.61344189 11.59937292 91.17902078 10.25 94.625 C9.98687012 95.29305664 9.72374023 95.96111328 9.45263672 96.64941406 C7.36612975 101.97566116 5.38099207 107.33838492 3.40478516 112.70629883 C0.99955844 119.16024539 -1.70052736 125.48448833 -4.46044922 131.79394531 C-4.79061035 132.55932617 -5.12077148 133.32470703 -5.4609375 134.11328125 C-5.90638916 135.13095581 -5.90638916 135.13095581 -6.36083984 136.16918945 C-7.16480223 138.14886401 -7.16480223 138.14886401 -7 141 C-13.27 141 -19.54 141 -26 141 C-24.88625 138.875625 -23.7725 136.75125 -22.625 134.5625 C-17.51064411 124.49464382 -13.46179962 114.01203542 -9.36474609 103.5 C-7.91352467 99.77822713 -6.45219055 96.06054444 -4.98828125 92.34375 C-2.67899421 86.47854291 -0.37618132 80.61082978 1.921875 74.74121094 C2.63674986 72.92358981 3.37881731 71.11641507 4.1484375 69.32128906 C5.32696943 66.10870833 4.91962625 64.28437946 4 61 C2.78744428 58.56507029 1.43671462 56.31728165 0 54 C-0.33 54 -0.66 54 -1 54 Z " fill="#5070FD" transform="translate(195,54)"/>
<path d="M0 0 C3.375 2.0625 3.375 2.0625 6 5 C6.77152986 9.32056721 6.52747866 11.19119939 4.125 14.875 C0.85919493 18.14080507 -1.36194899 18.17394776 -5.9296875 18.42578125 C-8 18 -8 18 -9.59423828 16 C-13.03583159 13.13887433 -16.29147556 13.48051385 -20.5625 13.57421875 C-21.80495483 13.57915092 -21.80495483 13.57915092 -23.07250977 13.58418274 C-25.71553904 13.5999158 -28.3572983 13.64396806 -31 13.6875 C-32.77863551 13.69899282 -34.55728294 13.70877755 -36.3359375 13.71679688 C-38.03647125 13.73022372 -39.73699398 13.74514746 -41.4375 13.76171875 C-42.23551025 13.76910568 -43.03352051 13.77649261 -43.85571289 13.78410339 C-49.03962329 13.77075128 -49.03962329 13.77075128 -54 15 C-55.0251211 16.7866198 -55.0251211 16.7866198 -55.54199219 19.02148438 C-55.9008551 20.24581177 -55.9008551 20.24581177 -56.26696777 21.49487305 C-56.50886841 22.32156494 -56.75076904 23.14825684 -57 24 C-57.51784069 25.43163468 -58.05295089 26.85715906 -58.60644531 28.27539062 C-58.88393616 28.98642944 -59.161427 29.69746826 -59.44732666 30.43005371 C-60.70938579 33.61987734 -61.97527715 36.80808434 -63.25048828 39.99267578 C-63.915852 41.66177334 -64.57505887 43.33333865 -65.22802734 45.00732422 C-71.82555581 61.91411286 -71.82555581 61.91411286 -77.6496582 68.33374023 C-79.58069015 70.71654498 -79.92271095 72.985727 -80 76 C-74.06496724 74.89346847 -70.89543061 73.89711276 -67 69 C-65.20679176 65.83354526 -65.20679176 65.83354526 -64 63 C-63.01 64.485 -63.01 64.485 -62 66 C-64.94183554 73.12962495 -68.05598345 76.06823679 -75.0625 79.5 C-78 80 -78 80 -80.9375 78.625 C-83.20173324 75.7432486 -83.28919751 75.31661132 -82.9375 71.875 C-82 68 -82 68 -80 66 C-80 64.68 -80 63.36 -80 62 C-81.98 62 -83.96 62 -86 62 C-87.83691257 58.21812119 -88.15837626 56.05431692 -87 52 C-86.01 52 -85.02 52 -84 52 C-84 53.98 -84 55.96 -84 58 C-82.35 58.33 -80.7 58.66 -79 59 C-78.73356689 58.16968262 -78.46713379 57.33936523 -78.19262695 56.48388672 C-76.89295062 52.68728872 -75.43173703 48.97244878 -73.91796875 45.2578125 C-73.4738842 44.16700882 -73.4738842 44.16700882 -73.02082825 43.0541687 C-72.39582966 41.52245252 -71.76964367 39.99122035 -71.14233398 38.46044922 C-70.19431109 36.14165939 -69.2563203 33.81896838 -68.31835938 31.49609375 C-60.29460987 11.79908544 -60.29460987 11.79908544 -53 7 C-49.22804958 5.74268319 -45.68393177 5.84516558 -41.75390625 5.82421875 C-40.09569035 5.80102612 -38.43748717 5.77690902 -36.77929688 5.75195312 C-34.16779997 5.71680545 -31.55677332 5.68747062 -28.94506836 5.67407227 C-26.42243835 5.65860185 -23.90117521 5.618409 -21.37890625 5.57421875 C-20.20999596 5.57708138 -20.20999596 5.57708138 -19.01747131 5.58000183 C-15.42912541 5.49902675 -13.4542153 5.38367878 -10.66381836 3.02661133 C-9.84022827 2.02343872 -9.84022827 2.02343872 -9 1 C-5.61670875 -0.12776375 -3.54843366 -0.41746278 0 0 Z " fill="#626BFD" transform="translate(210,198)"/>
<path d="M0 0 C0.99 0.33 1.98 0.66 3 1 C4.20352355 3.6991953 5.21441931 6.34065624 6.1875 9.125 C8.9556075 16.74732499 11.90108142 24.26974199 15.01171875 31.7578125 C15.36785751 32.61637848 15.72399628 33.47494446 16.09092712 34.35952759 C17.54393288 37.85794512 18.99905548 41.35538846 20.46664429 44.84771729 C21.51280488 47.33857016 22.54991972 49.83303979 23.5859375 52.328125 C23.90024216 53.06821808 24.21454681 53.80831116 24.53837585 54.5708313 C26.6270627 59.62567552 27.97531054 64.62961464 29 70 C26.20766929 67.44722581 25.51032394 65.77639718 25 62 C24.34 62 23.68 62 23 62 C22.773125 61.21625 22.54625 60.4325 22.3125 59.625 C21.21174627 56.58482303 19.98013675 53.92235125 18.5 51.0625 C16.44598132 47.0568624 15.12896205 43.34216173 14 39 C13.37530495 37.64649406 12.7283669 36.30065517 12 35 C11.67 35 11.34 35 11 35 C10.87882812 34.36191406 10.75765625 33.72382812 10.6328125 33.06640625 C10.46523437 32.24011719 10.29765625 31.41382812 10.125 30.5625 C9.96257812 29.73878906 9.80015625 28.91507813 9.6328125 28.06640625 C9.42398438 27.38449219 9.21515625 26.70257813 9 26 C8.34 25.67 7.68 25.34 7 25 C7.04125 24.2575 7.0825 23.515 7.125 22.75 C6.99126337 19.80779412 6.38829564 18.54520867 5 16 C4.67 14.948125 4.34 13.89625 4 12.8125 C3.32012508 9.87134522 3.32012508 9.87134522 1 9 C1.33 8.34 1.66 7.68 2 7 C0.41591827 8.07716915 0.41591827 8.07716915 -1 10 C-1.2017707 11.61416558 -1.39826335 13.2292409 -1.5625 14.84765625 C-2.32078005 18.57812326 -4.10241171 21.86482892 -5.73046875 25.28515625 C-7.37169867 28.79486331 -8.6812587 32.35776212 -10 36 C-10.66066719 37.66905395 -11.32438252 39.3369416 -12 41 C-11.01 41.495 -11.01 41.495 -10 42 C-10.556875 42.45375 -11.11375 42.9075 -11.6875 43.375 C-16.62150198 48.975759 -19.14623834 55.84977647 -21 63 C-21.95130107 65.68742552 -22.97332162 68.33996965 -24 71 C-24.66 71 -25.32 71 -26 71 C-25.95230469 71.72832031 -25.90460938 72.45664063 -25.85546875 73.20703125 C-26.01831625 76.35394906 -26.78289826 77.95767979 -28.3125 80.6875 C-30.11536366 84.09627583 -31.48651529 87.27998388 -32.5 91 C-33.4531735 94.44526959 -34.63162216 97.40885301 -36.3125 100.5625 C-39.10015141 105.85145796 -40.98319147 111.36192948 -42.85668945 117.02368164 C-44.19681118 121.00645191 -45.65521676 124.46895069 -48 128 C-48.66 127.67 -49.32 127.34 -50 127 C-49.34644531 125.43765625 -49.34644531 125.43765625 -48.6796875 123.84375 C-48.0779808 122.39589325 -47.47642684 120.94797302 -46.875 119.5 C-46.59140625 118.82324219 -46.3078125 118.14648438 -46.015625 117.44921875 C-43.68716032 111.83053223 -41.54160427 106.1485065 -39.41766357 100.45025635 C-36.39551911 92.35419986 -33.26204135 84.30208147 -30.125 76.25 C-29.81941162 75.46451782 -29.51382324 74.67903564 -29.19897461 73.86975098 C-25.36969371 64.02766943 -21.50517877 54.2016009 -17.55517578 44.40722656 C-15.38221324 39.00373797 -13.31998159 33.56555723 -11.2980957 28.10400391 C-9.17939114 22.41030144 -6.94438445 16.76519965 -4.6875 11.125 C-4.33751953 10.24972656 -3.98753906 9.37445313 -3.62695312 8.47265625 C-1.13539567 2.27079133 -1.13539567 2.27079133 0 0 Z " fill="#59B8FE" transform="translate(195,54)"/>
<path d="M0 0 C2.32539494 2.12664324 3.71535456 4.09595031 5.0625 6.9375 C5.38347656 7.60652344 5.70445312 8.27554688 6.03515625 8.96484375 C6.35355469 9.63644531 6.67195313 10.30804688 7 11 C7.66388938 12.33471837 8.32976112 13.66845876 9 15 C6.69287028 17.83954427 5.64024405 18.92160277 1.9375 19.375 C-1 19 -1 19 -4 17 C-1.80250023 21.35749955 0.49790925 23.2504178 4.6875 25.6875 C6.48882361 26.74119254 8.26951592 27.8336126 10 29 C10 29.66 10 30.32 10 31 C10.99 31 11.98 31 13 31 C13.495 31.99 13.495 31.99 14 33 C14.639375 33.2475 15.27875 33.495 15.9375 33.75 C18 35 18 35 19.4375 37.8125 C20 41 20 41 19 43.875 C17 46 17 46 14.25 46.6875 C10.33555402 45.85944412 8.62690713 44.34267959 5.80859375 41.60546875 C3.68469447 39.72010675 1.45134863 38.43723864 -1 37 C-2.78280143 35.82745614 -4.5482677 34.63089439 -6.31518555 33.43457031 C-12.39836426 29.31719862 -18.46465688 25.37050039 -25 22 C-25.94359375 21.48566406 -26.8871875 20.97132813 -27.859375 20.44140625 C-42.46341723 12.71312502 -56.15031871 12.77324584 -71.98046875 16.44140625 C-75 17 -75 17 -77 16 C-76.41892368 12.2397015 -75.34800504 9.46964968 -73.4375 6.1875 C-72.98246094 5.39730469 -72.52742187 4.60710937 -72.05859375 3.79296875 C-71.53458984 2.90544922 -71.53458984 2.90544922 -71 2 C-70.34 2.33 -69.68 2.66 -69 3 C-70.98 6.96 -72.96 10.92 -75 15 C-73.411875 14.34 -71.82375 13.68 -70.1875 13 C-57.66322322 8.85484929 -42.97735441 9.47513834 -31 15 C-19.72774767 20.79445866 -9.14221955 27.73600992 1.32177734 34.85986328 C3.97034995 36.65922814 6.63395756 38.43307207 9.3125 40.1875 C10.17488281 40.75855469 11.03726563 41.32960938 11.92578125 41.91796875 C12.95251953 42.45357422 12.95251953 42.45357422 14 43 C14.66 42.67 15.32 42.34 16 42 C15.67022127 39.04393764 15.42081301 37.42746474 13.30102539 35.27416992 C12.57391357 34.76474854 11.84680176 34.25532715 11.09765625 33.73046875 C10.29392578 33.15522461 9.49019531 32.57998047 8.66210938 31.98730469 C7.80423828 31.39336914 6.94636719 30.79943359 6.0625 30.1875 C4.32312571 28.94814718 2.58483462 27.70727267 0.84765625 26.46484375 C0.00992676 25.8704248 -0.82780273 25.27600586 -1.69091797 24.66357422 C-5.30392367 22.06059041 -8.74680453 19.27941056 -12.1875 16.453125 C-14.14669511 14.83888168 -14.14669511 14.83888168 -17 13 C-16.67 11.68 -16.34 10.36 -16 9 C-9.70881244 9.28596307 -5.08730357 11.7828055 0.42578125 14.72265625 C2.81964245 16.14816431 2.81964245 16.14816431 5 16 C4.54554036 14.58208592 4.08625056 13.16571954 3.625 11.75 C3.36976563 10.96109375 3.11453125 10.1721875 2.8515625 9.359375 C2.05887299 6.99751144 2.05887299 6.99751144 0.8984375 4.890625 C0 3 0 3 0 0 Z " fill="#696BFE" transform="translate(245,224)"/>
<path d="M0 0 C3.60139431 0.70462062 4.80627298 1.53897589 6.875 4.5625 C7.47524477 8.16396865 7.33062482 9.84109404 5.375 12.9375 C1.60602871 15.38733134 -0.66834931 15.1284239 -5.125 14.5625 C-5.71498779 13.5734668 -5.71498779 13.5734668 -6.31689453 12.56445312 C-8.12240029 10.13049078 -8.12240029 10.13049078 -12.05810547 10.04492188 C-13.70259339 10.01849015 -15.34756289 10.0154682 -16.9921875 10.03125 C-17.86392609 10.0274231 -18.73566467 10.02359619 -19.63381958 10.01965332 C-21.47805943 10.01693147 -23.3223377 10.0243118 -25.16650391 10.04101562 C-27.98297856 10.06237094 -30.79688743 10.04125098 -33.61328125 10.015625 C-35.40625561 10.01826924 -37.19922839 10.02339621 -38.9921875 10.03125 C-39.83192108 10.02315308 -40.67165466 10.01505615 -41.53683472 10.00671387 C-45.46096499 10.06928326 -47.63010544 10.26717562 -51.0625 12.31542969 C-53.1192023 14.55618347 -54.18845122 16.22100311 -55.2578125 19.046875 C-55.58910156 19.90023437 -55.92039063 20.75359375 -56.26171875 21.6328125 C-56.58785156 22.51710937 -56.91398438 23.40140625 -57.25 24.3125 C-57.58386719 25.18132812 -57.91773438 26.05015625 -58.26171875 26.9453125 C-60.16863072 31.91583727 -60.16863072 31.91583727 -61.89355469 36.95117188 C-62.6171875 39.140625 -62.6171875 39.140625 -64.125 42.5625 C-66.21923828 43.27636719 -66.21923828 43.27636719 -68.125 43.5625 C-67.93164062 42.99402344 -67.73828125 42.42554688 -67.5390625 41.83984375 C-65.3974803 35.48931038 -63.32631177 29.16971475 -62.125 22.5625 C-61.465 22.5625 -60.805 22.5625 -60.125 22.5625 C-59.82207031 21.89863281 -59.51914063 21.23476562 -59.20703125 20.55078125 C-56.74195738 15.35516402 -54.60794936 11.2196429 -50.125 7.5625 C-46.30619832 6.28956611 -42.70888467 6.42700328 -38.73046875 6.421875 C-37.03579386 6.4035458 -35.34113203 6.38397539 -33.64648438 6.36328125 C-30.98016326 6.33433416 -28.31468175 6.3125004 -25.64819336 6.31201172 C-23.07069782 6.30866773 -20.49512849 6.27406582 -17.91796875 6.234375 C-17.12714401 6.2414447 -16.33631927 6.2485144 -15.52153015 6.25579834 C-8.43107287 6.10074289 -6.24965657 1.12493818 0 0 Z " fill="#5367FC" transform="translate(207.125,199.4375)"/>
<path d="M0 0 C3.39267346 1.69633673 4.01239528 5.66550592 5.3125 9.0625 C6.02475746 10.88461709 6.73839935 12.70619339 7.453125 14.52734375 C7.85208984 15.54683105 8.25105469 16.56631836 8.66210938 17.61669922 C10.96491956 23.44011956 13.3409669 29.23368081 15.70800781 35.03121948 C20.58361488 46.97802395 25.3958289 58.94544294 30 71 C29.34 71.66 28.68 72.32 28 73 C27.69932617 72.24307861 27.39865234 71.48615723 27.08886719 70.70629883 C20.81251197 54.92171613 14.46470605 39.17198135 7.92285156 23.49536133 C5.50796868 17.69823744 3.15264445 11.89984035 1 6 C-1.38328283 9.57492424 -2.81681338 13.33485729 -4.375 17.3125 C-5.08047777 19.09515159 -5.78622554 20.87769635 -6.4921875 22.66015625 C-6.88374023 23.65160645 -7.27529297 24.64305664 -7.67871094 25.66455078 C-9.99561501 31.51332082 -12.33736198 37.35215896 -14.67608643 43.19223022 C-16.00369525 46.50800679 -17.32991667 49.82433808 -18.65625 53.140625 C-19.4296875 55.07421875 -20.203125 57.0078125 -21 59 C-27.27 59 -33.54 59 -40 59 C-39.09197285 55.36789138 -37.98080016 52.83110682 -36.26171875 49.546875 C-33.06019066 43.24897502 -30.38561318 36.82528767 -27.8125 30.25 C-27.38775391 29.17878906 -26.96300781 28.10757813 -26.52539062 27.00390625 C-24.29228183 21.35688463 -22.11107925 15.69372515 -20 10 C-19.34 10 -18.68 10 -18 10 C-18.56784957 14.10523606 -19.48851619 17.60401842 -21.109375 21.4140625 C-21.53476563 22.42339844 -21.96015625 23.43273437 -22.3984375 24.47265625 C-22.84445313 25.51292969 -23.29046875 26.55320313 -23.75 27.625 C-24.18054688 28.64207031 -24.61109375 29.65914062 -25.0546875 30.70703125 C-25.92575713 32.76473765 -26.80011791 34.82105387 -27.67773438 36.87597656 C-29.42641959 41.00747138 -31.11554148 45.16285127 -32.79785156 49.32177734 C-34 52 -34 52 -37 57 C-32.38 57 -27.76 57 -23 57 C-22.20335937 54.92460937 -21.40671875 52.84921875 -20.5859375 50.7109375 C-19.79214006 48.64851722 -18.99742917 46.58645107 -18.20263672 44.52441406 C-17.660671 43.11690192 -17.11962016 41.70903709 -16.57958984 40.30078125 C-13.31832493 31.79841462 -9.93797923 23.37955403 -6.25927734 15.04833984 C-4.74942635 11.39343493 -3.62843485 7.71522213 -2.640625 3.890625 C-2 2 -2 2 0 0 Z " fill="#5F9BFE" transform="translate(209,136)"/>
<path d="M0 0 C1.8871875 0.0309375 1.8871875 0.0309375 3.8125 0.0625 C3.8125 0.7225 3.8125 1.3825 3.8125 2.0625 C3.19503906 2.16046875 2.57757813 2.2584375 1.94140625 2.359375 C-10.93234985 4.63236694 -20.42694012 10.97842252 -30.55859375 18.9609375 C-32.1875 20.0625 -32.1875 20.0625 -34.1875 20.0625 C-34.1875 20.7225 -34.1875 21.3825 -34.1875 22.0625 C-36.13671875 23.5078125 -36.13671875 23.5078125 -38.875 25.1875 C-39.89207031 25.81527344 -40.90914062 26.44304687 -41.95703125 27.08984375 C-43.02308594 27.74082031 -44.08914062 28.39179688 -45.1875 29.0625 C-46.14011719 29.66191406 -47.09273437 30.26132812 -48.07421875 30.87890625 C-57.49543349 36.77794136 -67.15087951 42.26404786 -76.828125 47.72949219 C-78.27222864 48.54538684 -79.71521579 49.36326659 -81.15625 50.18457031 C-82.70467536 51.06699681 -84.25828088 51.94031852 -85.8125 52.8125 C-86.60914062 53.26109375 -87.40578125 53.7096875 -88.2265625 54.171875 C-90.1875 55.0625 -90.1875 55.0625 -93.1875 55.0625 C-92.55012513 51.40626348 -91.55479524 48.1201631 -90.21875 44.66015625 C-89.81640137 43.61456543 -89.41405273 42.56897461 -88.99951172 41.49169922 C-88.56654785 40.38068848 -88.13358398 39.26967773 -87.6875 38.125 C-87.2455127 36.98305176 -86.80352539 35.84110352 -86.34814453 34.66455078 C-82.10081769 23.74004512 -77.68360218 12.88669332 -73.1875 2.0625 C-72.5275 2.3925 -71.8675 2.7225 -71.1875 3.0625 C-72.0625 8.8125 -72.0625 8.8125 -73.1875 11.0625 C-73.8475 11.0625 -74.5075 11.0625 -75.1875 11.0625 C-75.435 12.320625 -75.6825 13.57875 -75.9375 14.875 C-77.9341838 23.81120722 -81.5801242 32.16609757 -85.234375 40.53125 C-86.36369464 43.07963505 -86.36369464 43.07963505 -86.1875 46.0625 C-87.1875 48.25 -87.1875 48.25 -88.1875 50.0625 C-87.1975 50.0625 -86.2075 50.0625 -85.1875 50.0625 C-84.8575 49.4025 -84.5275 48.7425 -84.1875 48.0625 C-81.625 47.4375 -81.625 47.4375 -79.1875 47.0625 C-79.1875 46.4025 -79.1875 45.7425 -79.1875 45.0625 C-78.34445313 44.65257812 -77.50140625 44.24265625 -76.6328125 43.8203125 C-75.53710938 43.28148437 -74.44140625 42.74265625 -73.3125 42.1875 C-72.22195312 41.65382813 -71.13140625 41.12015625 -70.0078125 40.5703125 C-67.14867453 39.21714063 -67.14867453 39.21714063 -65.1875 37.0625 C-64.1975 37.0625 -63.2075 37.0625 -62.1875 37.0625 C-62.1875 36.4025 -62.1875 35.7425 -62.1875 35.0625 C-61.42566406 34.69898438 -60.66382813 34.33546875 -59.87890625 33.9609375 C-53.91532095 31.05731919 -48.33044106 28.02174361 -42.9296875 24.1640625 C-41.1875 23.0625 -41.1875 23.0625 -39.1875 23.0625 C-38.6925 21.5775 -38.6925 21.5775 -38.1875 20.0625 C-36.08920559 18.46710259 -34.01379291 16.99998222 -31.8125 15.5625 C-27.39952542 12.72096141 -27.39952542 12.72096141 -23.4609375 9.28125 C-22.1875 8.0625 -22.1875 8.0625 -19.1875 8.0625 C-19.1875 7.4025 -19.1875 6.7425 -19.1875 6.0625 C-17.25055322 5.24868205 -15.31292289 4.43649084 -13.375 3.625 C-12.29605469 3.17253906 -11.21710938 2.72007812 -10.10546875 2.25390625 C-6.53858415 0.79754775 -3.83037724 -0.06279307 0 0 Z " fill="#6D48FD" transform="translate(190.1875,249.9375)"/>
<path d="M0 0 C9.3922669 1.02702037 16.28218768 5.05528488 24.08984375 10.16796875 C29.64709718 13.70504715 35.41112788 16.89037274 41.15234375 20.1171875 C41.15234375 20.7771875 41.15234375 21.4371875 41.15234375 22.1171875 C41.85359375 22.3853125 42.55484375 22.6534375 43.27734375 22.9296875 C48.94560442 25.2709256 54.11702591 28.24751149 59.34375 31.4296875 C63.44671945 33.89489307 67.61503226 36.24512852 71.78125 38.6015625 C74.15234375 40.1171875 74.15234375 40.1171875 75.15234375 42.1171875 C75.83296875 42.2203125 76.51359375 42.3234375 77.21484375 42.4296875 C80.78872741 43.26612836 83.17928152 44.91177482 86.1875 46.9609375 C88.18522917 48.13653956 89.88914313 48.67362034 92.15234375 49.1171875 C93.30247884 45.76065145 93.02914935 44.02152095 91.67578125 40.7734375 C91.16736694 39.53037842 91.16736694 39.53037842 90.64868164 38.26220703 C90.27864014 37.38935059 89.90859863 36.51649414 89.52734375 35.6171875 C89.15923584 34.72241699 88.79112793 33.82764648 88.41186523 32.90576172 C86.81671815 29.03926768 85.18653213 25.18820078 83.5390625 21.34375 C83.10207031 20.32023437 82.66507812 19.29671875 82.21484375 18.2421875 C81.83457031 17.37851562 81.45429688 16.51484375 81.0625 15.625 C80.03971603 12.80685705 79.56285129 10.08148403 79.15234375 7.1171875 C79.81234375 7.1171875 80.47234375 7.1171875 81.15234375 7.1171875 C92.00983551 33.71601342 92.00983551 33.71601342 95.71484375 42.9296875 C96.36646484 44.54810547 96.36646484 44.54810547 97.03125 46.19921875 C98.16344226 49.14607455 99.17843383 52.11467258 100.15234375 55.1171875 C97.15234375 56.1171875 97.15234375 56.1171875 94.97265625 55.32421875 C77.3030219 46.18210358 60.19545305 35.9482073 43.27734375 25.4921875 C40.9038469 24.03134612 38.52887142 22.57308311 36.15234375 21.1171875 C35.20375488 20.53533691 34.25516602 19.95348633 33.27783203 19.35400391 C29.96974053 17.32996432 26.65533178 15.31658483 23.33984375 13.3046875 C22.26557129 12.64581543 21.19129883 11.98694336 20.08447266 11.30810547 C12.2774705 6.58795966 5.30426125 3.07051224 -3.84765625 2.1171875 C-1.84765625 0.1171875 -1.84765625 0.1171875 0 0 Z " fill="#6E4CFE" transform="translate(198.84765625,249.8828125)"/>
<path d="M0 0 C3.375 2.0625 3.375 2.0625 6 5 C6.77152986 9.32056721 6.52747866 11.19119939 4.125 14.875 C0.85919493 18.14080507 -1.36194899 18.17394776 -5.9296875 18.42578125 C-8 18 -8 18 -9.62646484 16.01147461 C-12.91383681 13.22556043 -15.92655841 13.39742071 -20.046875 13.390625 C-20.81807678 13.37408875 -21.58927856 13.35755249 -22.3838501 13.34051514 C-24.83931454 13.29205407 -27.29415984 13.27066963 -29.75 13.25 C-31.41799987 13.22183854 -33.08597092 13.19191086 -34.75390625 13.16015625 C-38.8358865 13.08629628 -42.91752345 13.03671064 -47 13 C-47.33 12.34 -47.66 11.68 -48 11 C-42.78561957 10.9011636 -37.57178357 10.82854794 -32.35668945 10.78027344 C-30.58250431 10.76015097 -28.80838554 10.7328497 -27.03442383 10.69824219 C-24.48502233 10.64975008 -21.93649705 10.62703847 -19.38671875 10.609375 C-18.59287277 10.58872986 -17.79902679 10.56808472 -16.98112488 10.54681396 C-14.73706055 10.54589844 -14.73706055 10.54589844 -11 11 C-9.09692383 12.9934082 -9.09692383 12.9934082 -8 15 C-4.53793403 15.88645641 -1.11439705 15.62684834 2 13.875 C3.47901666 11.10184376 3.38601984 9.08815875 3 6 C2 4 2 4 0 3 C-2.8715965 2.33209636 -2.8715965 2.33209636 -6 3 C-6.8758374 3.82290527 -7.7516748 4.64581055 -8.65405273 5.49365234 C-12.45356935 8.78335892 -15.86139255 8.68424395 -20.72265625 8.6015625 C-21.5457579 8.60956879 -22.36885956 8.61757507 -23.21690369 8.62582397 C-25.83261032 8.64880291 -28.446753 8.63946363 -31.0625 8.625 C-33.68152335 8.62114602 -36.29986133 8.62463301 -38.91880798 8.64559937 C-40.54373606 8.65764155 -42.16885718 8.65509655 -43.79371643 8.63589478 C-49.3688399 8.66339781 -52.39669717 9.89138654 -56.64453125 13.33203125 C-58.48995856 15.60291731 -59.52164382 18.00918175 -60.6875 20.6875 C-61.12449219 21.68136719 -61.56148437 22.67523438 -62.01171875 23.69921875 C-62.33785156 24.45847656 -62.66398438 25.21773437 -63 26 C-63.95435272 23.43332469 -64.07808771 22.23892508 -63.21484375 19.59765625 C-59.98543157 13.18821129 -57.12103048 8.37367683 -50 6 C-47.24460226 5.89360762 -44.50984714 5.83890777 -41.75390625 5.82421875 C-40.09569035 5.80102612 -38.43748717 5.77690902 -36.77929688 5.75195312 C-34.16779997 5.71680545 -31.55677332 5.68747062 -28.94506836 5.67407227 C-26.42243835 5.65860185 -23.90117521 5.618409 -21.37890625 5.57421875 C-20.59963272 5.57612717 -19.82035919 5.57803558 -19.01747131 5.58000183 C-15.42912541 5.49902675 -13.4542153 5.38367878 -10.66381836 3.02661133 C-10.1147583 2.35782959 -9.56569824 1.68904785 -9 1 C-5.61670875 -0.12776375 -3.54843366 -0.41746278 0 0 Z " fill="#667DFE" transform="translate(210,198)"/>
<path d="M0 0 C0.99 0.33 1.98 0.66 3 1 C4.20352355 3.6991953 5.21441931 6.34065624 6.1875 9.125 C8.9556075 16.74732499 11.90108142 24.26974199 15.01171875 31.7578125 C15.36785751 32.61637848 15.72399628 33.47494446 16.09092712 34.35952759 C17.54393288 37.85794512 18.99905548 41.35538846 20.46664429 44.84771729 C21.51280488 47.33857016 22.54991972 49.83303979 23.5859375 52.328125 C23.90024216 53.06821808 24.21454681 53.80831116 24.53837585 54.5708313 C26.6270627 59.62567552 27.97531054 64.62961464 29 70 C26.20766929 67.44722581 25.51032394 65.77639718 25 62 C24.34 62 23.68 62 23 62 C22.773125 61.21625 22.54625 60.4325 22.3125 59.625 C21.21174627 56.58482303 19.98013675 53.92235125 18.5 51.0625 C16.44598132 47.0568624 15.12896205 43.34216173 14 39 C13.37530495 37.64649406 12.7283669 36.30065517 12 35 C11.67 35 11.34 35 11 35 C10.87882812 34.36191406 10.75765625 33.72382812 10.6328125 33.06640625 C10.46523437 32.24011719 10.29765625 31.41382812 10.125 30.5625 C9.96257812 29.73878906 9.80015625 28.91507813 9.6328125 28.06640625 C9.42398438 27.38449219 9.21515625 26.70257813 9 26 C8.34 25.67 7.68 25.34 7 25 C7.04125 24.2575 7.0825 23.515 7.125 22.75 C6.99126337 19.80779412 6.38829564 18.54520867 5 16 C4.505 14.4221875 4.505 14.4221875 4 12.8125 C3.32012508 9.87134522 3.32012508 9.87134522 1 9 C1.33 8.34 1.66 7.68 2 7 C-0.78389473 9.40427272 -1.73408122 11.57457273 -3 15 C-3.69989476 16.60786633 -4.40883722 18.21181337 -5.125 19.8125 C-5.47820312 20.60269531 -5.83140625 21.39289063 -6.1953125 22.20703125 C-6.46085938 22.79871094 -6.72640625 23.39039062 -7 24 C-8.11970095 20.69488107 -7.90357495 18.95305218 -6.6015625 15.7421875 C-6.28703125 14.95199219 -5.9725 14.16179687 -5.6484375 13.34765625 C-5.31070313 12.53167969 -4.97296875 11.71570313 -4.625 10.875 C-4.13 9.63943359 -4.13 9.63943359 -3.625 8.37890625 C-1.29129464 2.58258929 -1.29129464 2.58258929 0 0 Z " fill="#3FD4FD" transform="translate(195,54)"/>
<path d="M0 0 C2.375 0.625 2.375 0.625 5 2 C7.66275196 7.32550391 9.00065493 14.64834397 7.2734375 20.43359375 C6.27701564 22.6888539 5.19112189 24.84186975 4 27 C2.06464177 30.7273566 0.61321707 33.83012393 0 38 C-0.66 38 -1.32 38 -2 38 C-2.33 38.66 -2.66 39.32 -3 40 C-2.39249101 33.41286676 -0.11257539 28.18787742 2.6484375 22.22851562 C4.62276467 17.73368471 5.47488156 14.89489678 4 10 C3.06057514 7.97084231 2.07401615 5.96124688 1 4 C-2.65323999 11.95477676 -5.8016266 20.08246186 -8.9375 28.25 C-9.45486866 29.59252866 -9.9724457 30.93497703 -10.49023438 32.27734375 C-11.75023682 35.5454891 -13.0076364 38.81462706 -14.26385498 42.08422852 C-15.46800179 45.21794547 -16.67357678 48.35111276 -17.87890625 51.484375 C-18.58595948 53.32290821 -19.29299971 55.16144643 -20 57 C-20.66 57 -21.32 57 -22 57 C-21.2481495 52.00121018 -19.40575309 47.45207119 -17.625 42.75 C-15.53212752 37.18969896 -13.52460958 31.62246027 -11.66992188 25.97802734 C-10.85963162 23.58554496 -9.92271429 21.26292483 -8.9375 18.9375 C-7.67526485 15.87681703 -6.71720199 12.99262779 -6.0625 9.75 C-4.79376902 5.27212595 -3.16332445 3.32981521 0 0 Z " fill="#4EC3FE" transform="translate(194,105)"/>
<path d="M0 0 C9.3922669 1.02702037 16.28218768 5.05528488 24.08984375 10.16796875 C29.64709718 13.70504715 35.41112788 16.89037274 41.15234375 20.1171875 C41.15234375 20.7771875 41.15234375 21.4371875 41.15234375 22.1171875 C41.85359375 22.3853125 42.55484375 22.6534375 43.27734375 22.9296875 C53.25400486 27.05048231 62.2617717 33.0612906 71.15234375 39.1171875 C68.15234375 40.1171875 68.15234375 40.1171875 65.4296875 38.8515625 C64.32753906 38.19671875 63.22539062 37.541875 62.08984375 36.8671875 C61.47407471 36.50439697 60.85830566 36.14160645 60.22387695 35.76782227 C58.19184143 34.56407446 56.17094812 33.34331333 54.15234375 32.1171875 C53.15557617 31.51269775 53.15557617 31.51269775 52.13867188 30.89599609 C48.51930062 28.69603724 44.90746925 26.48385729 41.296875 24.26953125 C39.58213372 23.21858279 37.867281 22.16781615 36.15234375 21.1171875 C35.12415527 20.48699707 34.0959668 19.85680664 33.03662109 19.20751953 C29.70456314 17.1701423 26.36652501 15.14286469 23.02734375 13.1171875 C21.97248779 12.46999756 20.91763184 11.82280762 19.83081055 11.15600586 C12.11912922 6.49234213 5.19301134 3.05892371 -3.84765625 2.1171875 C-1.84765625 0.1171875 -1.84765625 0.1171875 0 0 Z " fill="#6B60FE" transform="translate(198.84765625,249.8828125)"/>
<path d="M0 0 C3 1 3 1 4.36279297 3.47753906 C5.04559326 5.1051416 5.04559326 5.1051416 5.7421875 6.765625 C6.50595703 8.56773437 6.50595703 8.56773437 7.28515625 10.40625 C7.81519021 11.68746441 8.34513779 12.96871455 8.875 14.25 C9.39618462 15.48477675 9.9183109 16.71915649 10.44140625 17.953125 C12.87908135 23.73208583 15.22708309 29.53948187 17.45703125 35.40234375 C20.39395346 43.11588945 23.60290477 50.7096101 26.8125 58.3125 C27.41619791 59.74666807 28.01971452 61.18091248 28.62304688 62.61523438 C30.07995077 66.07770179 31.53927543 69.53914239 33 73 C32.34 73.66 31.68 74.32 31 75 C28.20077991 68.9656157 25.51196521 62.91622138 23.08227539 56.72338867 C18.86201849 46.10372576 14.30437739 35.61506623 9.84179688 25.09570312 C9.37451172 23.99291016 8.90722656 22.89011719 8.42578125 21.75390625 C8.00723877 20.76720947 7.58869629 19.7805127 7.1574707 18.76391602 C6.77550537 17.85182373 6.39354004 16.93973145 6 16 C5.61996826 15.11820068 5.23993652 14.23640137 4.84838867 13.32788086 C4 11 4 11 4 8 C3.34 8 2.68 8 2 8 C0.74335022 5.09399739 0 3.20395416 0 0 Z " fill="#58B6FE" transform="translate(222,122)"/>
<path d="M0 0 C0.66 0.33 1.32 0.66 2 1 C2 2.98 2 4.96 2 7 C3.65 7.33 5.3 7.66 7 8 C7.33 7.34 7.66 6.68 8 6 C10.44757506 10.37066975 10.44757506 10.37066975 11 13 C9.25 16.0625 9.25 16.0625 7 19 C6.20929452 22.23038842 6.20929452 22.23038842 6 25 C11.93503276 23.89346847 15.10456939 22.89711276 19 18 C20.79320824 14.83354526 20.79320824 14.83354526 22 12 C22.99 13.485 22.99 13.485 24 15 C21.05816446 22.12962495 17.94401655 25.06823679 10.9375 28.5 C8 29 8 29 5.0625 27.625 C2.79826676 24.7432486 2.71080249 24.31661132 3.0625 20.875 C4 17 4 17 6 15 C6 13.68 6 12.36 6 11 C4.02 11 2.04 11 0 11 C-1.82941851 7.23355012 -2.23162684 5.03077875 -1 1 C-0.67 0.67 -0.34 0.34 0 0 Z " fill="#665BFD" transform="translate(124,249)"/>
<path d="M0 0 C2.32539494 2.12664324 3.71535456 4.09595031 5.0625 6.9375 C5.38347656 7.60652344 5.70445312 8.27554688 6.03515625 8.96484375 C6.35355469 9.63644531 6.67195313 10.30804688 7 11 C7.66388938 12.33471837 8.32976112 13.66845876 9 15 C6.69287028 17.83954427 5.64024405 18.92160277 1.9375 19.375 C-1 19 -1 19 -4 17 C-4.33 17.99 -4.66 18.98 -5 20 C-6.33333333 19.33333333 -7.66666667 18.66666667 -9 18 C-9.66 17.690625 -10.32 17.38125 -11 17.0625 C-13.18405955 15.90221836 -15.05791031 14.52592761 -17 13 C-16.67 11.68 -16.34 10.36 -16 9 C-9.70881244 9.28596307 -5.08730357 11.7828055 0.42578125 14.72265625 C2.81964245 16.14816431 2.81964245 16.14816431 5 16 C4.54554036 14.58208592 4.08625056 13.16571954 3.625 11.75 C3.36976563 10.96109375 3.11453125 10.1721875 2.8515625 9.359375 C2.05887299 6.99751144 2.05887299 6.99751144 0.8984375 4.890625 C0 3 0 3 0 0 Z " fill="#5559FC" transform="translate(245,224)"/>
<path d="M0 0 C0.66 0 1.32 0 2 0 C-0.03264508 7.30614476 -2.59581028 14.26922276 -5.4921875 21.2734375 C-5.92000519 22.31843414 -6.34782288 23.36343079 -6.78860474 24.44009399 C-8.14636478 27.75354293 -9.51059738 31.06428163 -10.875 34.375 C-11.78297388 36.58836868 -12.69052956 38.80190897 -13.59765625 41.015625 C-17.70200483 51.02291983 -21.83314042 61.01856026 -26 71 C-26.66 70.34 -27.32 69.68 -28 69 C-27.72961914 68.33919434 -27.45923828 67.67838867 -27.18066406 66.99755859 C-21.10601123 52.1419009 -15.08436445 37.26698519 -9.14941406 22.35498047 C-6.16767857 14.87403737 -3.12187077 7.42358752 0 0 Z " fill="#6681FE" transform="translate(145,182)"/>
<path d="M0 0 C1.8871875 0.0309375 1.8871875 0.0309375 3.8125 0.0625 C3.8125 0.7225 3.8125 1.3825 3.8125 2.0625 C3.19503906 2.16046875 2.57757813 2.2584375 1.94140625 2.359375 C-10.93234985 4.63236694 -20.42694012 10.97842252 -30.55859375 18.9609375 C-32.1875 20.0625 -32.1875 20.0625 -34.1875 20.0625 C-34.1875 20.7225 -34.1875 21.3825 -34.1875 22.0625 C-36.41796875 23.71875 -36.41796875 23.71875 -39.375 25.5625 C-40.81939453 26.47515625 -40.81939453 26.47515625 -42.29296875 27.40625 C-44.88376696 28.88870404 -47.38932169 30.03940007 -50.1875 31.0625 C-49.02380874 27.57142621 -48.29776462 27.21027237 -45.25 25.375 C-44.53972656 24.93800781 -43.82945312 24.50101562 -43.09765625 24.05078125 C-41.1875 23.0625 -41.1875 23.0625 -39.1875 23.0625 C-38.8575 22.0725 -38.5275 21.0825 -38.1875 20.0625 C-36.08920559 18.46710259 -34.01379291 16.99998222 -31.8125 15.5625 C-27.39952542 12.72096141 -27.39952542 12.72096141 -23.4609375 9.28125 C-22.1875 8.0625 -22.1875 8.0625 -19.1875 8.0625 C-19.1875 7.4025 -19.1875 6.7425 -19.1875 6.0625 C-17.25055322 5.24868205 -15.31292289 4.43649084 -13.375 3.625 C-12.29605469 3.17253906 -11.21710938 2.72007812 -10.10546875 2.25390625 C-6.53858415 0.79754775 -3.83037724 -0.06279307 0 0 Z " fill="#6957FD" transform="translate(190.1875,249.9375)"/>
<path d="M0 0 C3.39000761 3.8281009 4.88061543 8.3604834 6.6875 13.0625 C7.39555353 14.87171363 8.10522988 16.68029288 8.81640625 18.48828125 C9.17750488 19.40689941 9.53860352 20.32551758 9.91064453 21.27197266 C11.58284976 25.45960627 13.35406347 29.60340647 15.125 33.75 C17.68834348 39.80097552 20.19629495 45.868931 22.5625 52 C22.95816162 52.99725098 22.95816162 52.99725098 23.36181641 54.01464844 C25.11701472 58.64895584 25.11701472 58.64895584 24 62 C23.67 61.01 23.34 60.02 23 59 C22.34 59 21.68 59 21 59 C20.82984375 58.46632812 20.6596875 57.93265625 20.484375 57.3828125 C18.9014178 52.51606111 17.14414758 47.76399973 15.21875 43.0234375 C9.60549754 29.09825352 4.32769795 15.03607379 -1 1 C-0.67 0.67 -0.34 0.34 0 0 Z " fill="#6769FE" transform="translate(254,196)"/>
<path d="M0 0 C0.66 0 1.32 0 2 0 C0.04050948 6.25422613 -2.29396031 12.22098767 -5 18.1875 C-5.34289062 18.95513672 -5.68578125 19.72277344 -6.0390625 20.51367188 C-7.01274649 22.68216275 -8.00292826 24.84218136 -9 27 C-9.79277344 28.73056641 -9.79277344 28.73056641 -10.6015625 30.49609375 C-12 33 -12 33 -14.375 33.875 C-17 34 -17 34 -19.625 33.75 C-20.40875 33.8325 -21.1925 33.915 -22 34 C-25.10887905 38.43892442 -26.8529694 43.43749193 -28.81640625 48.453125 C-30 51 -30 51 -32 52 C-31.42334176 47.24977778 -30.05052212 43.50049724 -28 39.1875 C-27.46375 38.04667969 -26.9275 36.90585938 -26.375 35.73046875 C-25 33 -25 33 -24 32 C-23.32710937 32.06960937 -22.65421875 32.13921875 -21.9609375 32.2109375 C-18.82740882 32.40974143 -16.90564855 32.23911015 -14 31 C-11.22615116 27.00675622 -9.57114062 22.74474229 -7.85742188 18.21386719 C-6.39497517 14.43782314 -4.71038566 10.76032703 -3.0625 7.0625 C-2.03658034 4.71050314 -1.01826767 2.3553243 0 0 Z " fill="#678CFE" transform="translate(171,162)"/>
<path d="M0 0 C0.66 0 1.32 0 2 0 C2.33 1.98 2.66 3.96 3 6 C2.34 6 1.68 6 1 6 C-2.48761601 14.61441155 -5.9023485 23.2354684 -9 32 C-9.33 30.68 -9.66 29.36 -10 28 C-10.33 28.33 -10.66 28.66 -11 29 C-12.26603339 25.20189982 -11.51067987 24.16095845 -9.98046875 20.52734375 C-9.53509766 19.46322266 -9.08972656 18.39910156 -8.63085938 17.30273438 C-8.15455078 16.19220703 -7.67824219 15.08167969 -7.1875 13.9375 C-6.49043945 12.2659082 -6.49043945 12.2659082 -5.77929688 10.56054688 C-2.27873884 2.27873884 -2.27873884 2.27873884 0 0 Z " fill="#5465FB" transform="translate(137,210)"/>
<path d="M0 0 C3 1 3 1 4.16796875 3.109375 C4.50441406 3.98078125 4.84085938 4.8521875 5.1875 5.75 C5.53167969 6.61109375 5.87585938 7.4721875 6.23046875 8.359375 C7.01419245 11.04870098 7.14520761 13.21601956 7 16 C5.62437146 14.71034824 4.29233607 13.37310707 3 12 C3 11.34 3 10.68 3 10 C2.34 9.67 1.68 9.34 1 9 C1.33 8.34 1.66 7.68 2 7 C-0.78389473 9.40427272 -1.73408122 11.57457273 -3 15 C-3.69989476 16.60786633 -4.40883722 18.21181337 -5.125 19.8125 C-5.47820312 20.60269531 -5.83140625 21.39289063 -6.1953125 22.20703125 C-6.46085938 22.79871094 -6.72640625 23.39039062 -7 24 C-8.11970095 20.69488107 -7.90357495 18.95305218 -6.6015625 15.7421875 C-6.28703125 14.95199219 -5.9725 14.16179687 -5.6484375 13.34765625 C-5.31070313 12.53167969 -4.97296875 11.71570313 -4.625 10.875 C-4.13 9.63943359 -4.13 9.63943359 -3.625 8.37890625 C-1.29129464 2.58258929 -1.29129464 2.58258929 0 0 Z " fill="#41E0FE" transform="translate(195,54)"/>
<path d="M0 0 C1.32 0 2.64 0 4 0 C4 0.66 4 1.32 4 2 C4.70125 2.268125 5.4025 2.53625 6.125 2.8125 C16.10166111 6.93329481 25.10942795 12.9441031 34 19 C31 20 31 20 28.2421875 18.69921875 C27.13101562 18.03535156 26.01984375 17.37148438 24.875 16.6875 C24.27478027 16.33155762 23.67456055 15.97561523 23.05615234 15.60888672 C21.74560843 14.83151336 20.43727395 14.05040638 19.13085938 13.26611328 C16.86704682 11.92100193 14.58477211 10.61228287 12.296875 9.30859375 C10.73945752 8.41428156 9.18216378 7.51975385 7.625 6.625 C6.86944824 6.19662842 6.11389648 5.76825684 5.33544922 5.3269043 C3.52324352 4.27394523 1.7562276 3.14388674 0 2 C0 1.34 0 0.68 0 0 Z " fill="#7054FD" transform="translate(236,270)"/>
<path d="M0 0 C0.66 0.66 1.32 1.32 2 2 C1.59278772 6.31528527 -0.1438215 10.26740467 -1.72265625 14.26953125 C-1.98759384 14.95053391 -2.25253143 15.63153656 -2.52549744 16.33317566 C-3.36733649 18.49446731 -4.21482507 20.65349145 -5.0625 22.8125 C-5.63644293 24.28305674 -6.21001468 25.7537584 -6.78320312 27.22460938 C-8.18451048 30.81809828 -9.59088666 34.40956527 -11 38 C-11.66 38 -12.32 38 -13 38 C-12.2481495 33.00121018 -10.40575309 28.45207119 -8.625 23.75 C-6.5256936 18.17260546 -4.49138316 12.59187051 -2.64477539 6.92504883 C-1.85802859 4.57612853 -0.95784213 2.28408509 0 0 Z " fill="#58A7FE" transform="translate(185,124)"/>
<path d="M0 0 C1 3 1 3 -0.00390625 5.3203125 C-0.51824219 6.24585938 -1.03257812 7.17140625 -1.5625 8.125 C-4.62632798 13.96052353 -6.84892768 19.86769471 -8.90649414 26.12353516 C-10.22767316 30.07645849 -11.67533664 33.49586142 -14 37 C-14.66 36.67 -15.32 36.34 -16 36 C-15.56429687 34.9584375 -15.12859375 33.916875 -14.6796875 32.84375 C-14.07749103 31.39609689 -13.47598095 29.94815815 -12.875 28.5 C-12.55950195 27.74058105 -12.24400391 26.98116211 -11.91894531 26.19873047 C-9.45651799 20.22296025 -7.16671577 14.19622462 -5.04248047 8.09179688 C-3.84250746 4.7603493 -2.81468257 2.2351891 0 0 Z " fill="#59A7FE" transform="translate(161,145)"/>
<path d="M0 0 C2.75937157 2.75937157 3.82107493 6.07199367 5.2578125 9.6328125 C5.56572723 10.38464813 5.87364197 11.13648376 6.19088745 11.91110229 C7.17365972 14.31383311 8.14939911 16.7193496 9.125 19.125 C9.78990352 20.75409451 10.45526252 22.38300319 11.12109375 24.01171875 C12.75268973 28.00567515 14.37798383 32.00214402 16 36 C15.34 36.66 14.68 37.32 14 38 C11.18576851 31.93325508 8.48721202 25.85033796 6.04296875 19.625 C4.4363892 15.58147394 2.73940081 11.57622421 1.05078125 7.56640625 C0.30153483 5.7364624 -0.3746949 3.8759153 -1 2 C-0.67 1.34 -0.34 0.68 0 0 Z " fill="#6296FE" transform="translate(239,159)"/>
<path d="M0 0 C2.85295006 2.85295006 3.84638304 6.36355088 5.2578125 10.0703125 C5.56572723 10.86654022 5.87364197 11.66276794 6.19088745 12.48312378 C7.17391947 15.02852302 8.14953262 17.57669344 9.125 20.125 C9.7898782 21.85044791 10.45523685 23.57571078 11.12109375 25.30078125 C12.75298008 29.53172646 14.37821814 33.76517187 16 38 C15.34 38.66 14.68 39.32 14 40 C12.34251017 35.89371005 10.68861078 31.78599686 9.0378418 27.67700195 C8.47727269 26.2830631 7.91577077 24.88949897 7.35327148 23.49633789 C4.35274493 16.06303344 1.41438502 8.64978832 -1 1 C-0.67 0.67 -0.34 0.34 0 0 Z " fill="#6989FE" transform="translate(223,169)"/>
<path d="M0 0 C0.66 0.66 1.32 1.32 2 2 C1.60167969 2.845625 1.20335937 3.69125 0.79296875 4.5625 C-2.71790792 12.0244706 -2.71790792 12.0244706 -5.75 19.6875 C-7 23 -7 23 -9 25 C-9.33266291 18.79029227 -8.45029331 14.71735105 -6 9 C-5.34 9 -4.68 9 -4 9 C-2.68 6.03 -1.36 3.06 0 0 Z M-10 25 C-9.67 25.99 -9.34 26.98 -9 28 C-8.34 28.33 -7.68 28.66 -7 29 C-9 31 -11 33 -13 35 C-12.39009109 31.44219804 -11.4216319 28.3171411 -10 25 Z " fill="#3DC3FB" transform="translate(192,67)"/>
<path d="M0 0 C6.2591051 3.19613877 12.09539603 7.19884446 18 11 C19.65 9.68 21.3 8.36 23 7 C23.33 7.66 23.66 8.32 24 9 C22.9375 11.625 22.9375 11.625 21 14 C18.25 14.6875 18.25 14.6875 15 14 C13.06740238 12.63480963 11.385063 11.1382899 9.66015625 9.51953125 C7.61994926 7.65214179 5.38812896 6.38260098 3 5 C1.31522656 3.68962066 -0.35648543 2.36176922 -2 1 C-1.34 0.67 -0.68 0.34 0 0 Z " fill="#6A5CFE" transform="translate(241,256)"/>
<path d="M0 0 C0.66 0.33 1.32 0.66 2 1 C-0.1701611 8.69959789 -2.84092772 16.15218027 -5.6875 23.625 C-6.10322266 24.72457031 -6.51894531 25.82414062 -6.94726562 26.95703125 C-7.96181911 29.63918415 -8.97944606 32.32012583 -10 35 C-10.66 35 -11.32 35 -12 35 C-11.38404218 30.39717094 -10.16273187 26.39974025 -8.49609375 22.0703125 C-8.13198143 21.11751907 -8.13198143 21.11751907 -7.76051331 20.14547729 C-6.99143407 18.13658597 -6.21461315 16.13079531 -5.4375 14.125 C-4.91159295 12.75540652 -4.38619716 11.38561661 -3.86132812 10.015625 C-2.58012222 6.67479163 -1.29196034 3.33669147 0 0 Z " fill="#6672FE" transform="translate(137,215)"/>
<path d="M0 0 C0.66 0 1.32 0 2 0 C1.30461062 4.31285539 -0.12714303 8.22512706 -1.72265625 12.26953125 C-1.98759384 12.95053391 -2.25253143 13.63153656 -2.52549744 14.33317566 C-3.36733649 16.49446731 -4.21482507 18.65349145 -5.0625 20.8125 C-5.63644293 22.28305674 -6.21001468 23.7537584 -6.78320312 25.22460938 C-8.18451048 28.81809828 -9.59088666 32.40956527 -11 36 C-11.99 36 -12.98 36 -14 36 C-13.71801758 35.30028076 -13.43603516 34.60056152 -13.14550781 33.87963867 C-11.84511234 30.64968423 -10.5475432 27.41860126 -9.25 24.1875 C-8.58484375 22.53717773 -8.58484375 22.53717773 -7.90625 20.85351562 C-5.13583136 13.94783974 -2.49182224 7.0111137 0 0 Z " fill="#6B74FE" transform="translate(131,216)"/>
<path d="M0 0 C0.66 0.33 1.32 0.66 2 1 C1.125 6.75 1.125 6.75 0 9 C-0.66 9 -1.32 9 -2 9 C-2.2475 10.27875 -2.495 11.5575 -2.75 12.875 C-3.91164561 18.169747 -5.86340266 23.03189259 -8 28 C-8.66 27.67 -9.32 27.34 -10 27 C-9.37344935 23.33597797 -8.35781607 20.12938799 -6.93359375 16.69921875 C-6.3293457 15.23452148 -6.3293457 15.23452148 -5.71289062 13.74023438 C-5.29201172 12.73283203 -4.87113281 11.72542969 -4.4375 10.6875 C-4.01275391 9.66076172 -3.58800781 8.63402344 -3.15039062 7.57617188 C-2.10429072 5.04907659 -1.05404084 2.52379106 0 0 Z " fill="#6B59FD" transform="translate(117,252)"/>
<path d="M0 0 C4.99598015 4.82944748 7.19629494 9.64967368 9.6875 16 C10.02072266 16.81984375 10.35394531 17.6396875 10.69726562 18.484375 C11.00728516 19.27328125 11.31730469 20.0621875 11.63671875 20.875 C11.92248779 21.59429687 12.20825684 22.31359375 12.50268555 23.0546875 C13 25 13 25 12 28 C9 22.25 9 22.25 9 20 C8.34 20 7.68 20 7 20 C6.773125 19.21625 6.54625 18.4325 6.3125 17.625 C4.87499884 13.65475871 3.02366243 10.07858751 1.0234375 6.3671875 C0 4 0 4 0 0 Z " fill="#4CC7FD" transform="translate(211,96)"/>
<path d="M0 0 C0.66 0 1.32 0 2 0 C1.41364787 4.45160868 0.2699732 8.15477486 -1.50390625 12.2734375 C-1.99697266 13.42714844 -2.49003906 14.58085937 -2.99804688 15.76953125 C-3.51431641 16.95933594 -4.03058594 18.14914063 -4.5625 19.375 C-5.08263672 20.58800781 -5.60277344 21.80101562 -6.13867188 23.05078125 C-7.41991756 26.03643633 -8.70719374 29.01933688 -10 32 C-10.33 32 -10.66 32 -11 32 C-10.46706455 25.90813784 -8.53146928 21.00032813 -6.0625 15.4375 C-3.83517157 10.34134069 -1.6474413 5.32183917 0 0 Z " fill="#5FA4FE" transform="translate(189,146)"/>
<path d="M0 0 C1.65322266 0.01740234 1.65322266 0.01740234 3.33984375 0.03515625 C4.44457031 0.04417969 5.54929688 0.05320313 6.6875 0.0625 C7.54214844 0.07410156 8.39679688 0.08570313 9.27734375 0.09765625 C9.27734375 1.08765625 9.27734375 2.07765625 9.27734375 3.09765625 C5.31734375 2.76765625 1.35734375 2.43765625 -2.72265625 2.09765625 C-3.05265625 3.41765625 -3.38265625 4.73765625 -3.72265625 6.09765625 C-4.23371209 7.33527937 -4.77791168 8.55964952 -5.3515625 9.76953125 C-5.66416016 10.43339844 -5.97675781 11.09726563 -6.29882812 11.78125 C-6.62431641 12.46316406 -6.94980469 13.14507812 -7.28515625 13.84765625 C-7.61451172 14.54503906 -7.94386719 15.24242187 -8.28320312 15.9609375 C-9.09313337 17.67470295 -9.90746263 19.38638819 -10.72265625 21.09765625 C-11.50201876 18.81686547 -11.85688578 17.52076636 -11.11767578 15.19067383 C-10.78364746 14.54767334 -10.44961914 13.90467285 -10.10546875 13.2421875 C-9.74582031 12.53771484 -9.38617188 11.83324219 -9.015625 11.10742188 C-8.63019531 10.38232422 -8.24476563 9.65722656 -7.84765625 8.91015625 C-7.46996094 8.17345703 -7.09226563 7.43675781 -6.703125 6.67773438 C-3.31202705 0.11879581 -3.31202705 0.11879581 0 0 Z " fill="#6978FE" transform="translate(167.72265625,221.90234375)"/>
<path d="M0 0 C0.66 0 1.32 0 2 0 C1.50681344 4.04412981 0.5082958 7.37439465 -1.1796875 11.078125 C-2.0885324 13.20741876 -2.79692291 15.35705818 -3.5 17.5625 C-4.6881656 21.23386884 -6.16629927 24.59455578 -8 28 C-9.35169246 24.95083328 -8.894266 23.65599221 -7.890625 20.390625 C-7.35484075 19.00607361 -6.80753562 17.62593653 -6.25 16.25 C-5.98445312 15.57195312 -5.71890625 14.89390625 -5.4453125 14.1953125 C-4.9095244 12.8272322 -4.36981619 11.46068058 -3.82617188 10.09570312 C-2.5060531 6.74703305 -1.25554942 3.37334362 0 0 Z " fill="#4CCBFD" transform="translate(182,86)"/>
<path d="M0 0 C0.66 0 1.32 0 2 0 C1.45048465 4.60906004 0.18943604 7.98362276 -2 12.0625 C-3.97031614 15.74263375 -5.39170814 18.85601167 -6 23 C-6.66 23 -7.32 23 -8 23 C-8.33 23.66 -8.66 24.32 -9 25 C-8.4465559 19.20421044 -6.78884517 14.45644659 -4.5 9.125 C-4.01853516 7.96871094 -4.01853516 7.96871094 -3.52734375 6.7890625 C-1.15788849 1.15788849 -1.15788849 1.15788849 0 0 Z " fill="#57B5FD" transform="translate(200,120)"/>
<path d="M0 0 C2.32539494 2.12664324 3.71535456 4.09595031 5.0625 6.9375 C5.38347656 7.60652344 5.70445312 8.27554688 6.03515625 8.96484375 C6.35355469 9.63644531 6.67195312 10.30804688 7 11 C7.66388938 12.33471837 8.32976112 13.66845876 9 15 C7.375 17 7.375 17 5 19 C1.75 19.25 1.75 19.25 -1 19 C-1.33 18.01 -1.66 17.02 -2 16 C-2.66 15.67 -3.32 15.34 -4 15 C-1.03 15.33 1.94 15.66 5 16 C4.54625 14.5975 4.0925 13.195 3.625 11.75 C3.36976563 10.96109375 3.11453125 10.1721875 2.8515625 9.359375 C2.05887299 6.99751144 2.05887299 6.99751144 0.8984375 4.890625 C0 3 0 3 0 0 Z " fill="#6362FD" transform="translate(245,224)"/>
<path d="M0 0 C0 0.66 0 1.32 0 2 C-0.61746094 2.09796875 -1.23492187 2.1959375 -1.87109375 2.296875 C-7.41375266 3.27548753 -12.07827346 4.71896804 -17.08984375 7.29296875 C-19 8 -19 8 -22 7 C-15.61150276 1.02366387 -8.50284293 -0.46379143 0 0 Z " fill="#6B67FE" transform="translate(194,250)"/>
<path d="M0 0 C4.77576339 0.4682121 8.04476345 1.24331998 12 4 C10.1875 4.625 10.1875 4.625 8 5 C7.01 4.34 6.02 3.68 5 3 C4.01 3 3.02 3 2 3 C2.66 3.45375 3.32 3.9075 4 4.375 C4.66 4.91125 5.32 5.4475 6 6 C6 6.66 6 7.32 6 8 C3.50638429 6.79618552 1.31856917 5.54571278 -1 4 C-0.67 2.68 -0.34 1.36 0 0 Z " fill="#686DFE" transform="translate(229,233)"/>
<path d="M0 0 C0.66 0.66 1.32 1.32 2 2 C1.33677734 3.04414063 1.33677734 3.04414063 0.66015625 4.109375 C-1.60953434 8.06130685 -3.15794326 12.21655288 -4.81640625 16.453125 C-6 19 -6 19 -8 20 C-7.42334176 15.24977778 -6.05052212 11.50049724 -4 7.1875 C-3.46375 6.04667969 -2.9275 4.90585938 -2.375 3.73046875 C-1 1 -1 1 0 0 Z " fill="#6482FE" transform="translate(147,194)"/>
<path d="M0 0 C4.48873309 3.52686171 6.58485642 8.58251782 8 14 C7.60546875 16.3125 7.60546875 16.3125 7 18 C3.32135086 12.06080693 1.20337119 6.89203498 0 0 Z " fill="#4CE1FE" transform="translate(207,84)"/>
<path d="M0 0 C0.66 0 1.32 0 2 0 C-0.05764921 6.45353615 -2.42383482 12.7361263 -5 19 C-5.66 19 -6.32 19 -7 19 C-6.4253379 14.21357393 -5.01754357 10.46211213 -2.9375 6.125 C-2.38964844 4.97257813 -1.84179688 3.82015625 -1.27734375 2.6328125 C-0.85582031 1.76398438 -0.43429688 0.89515625 0 0 Z " fill="#6399FE" transform="translate(171,162)"/>
<path d="M0 0 C0.66 0.33 1.32 0.66 2 1 C0.13236819 6.72210596 -1.85289032 12.37661751 -4 18 C-4.66 18 -5.32 18 -6 18 C-5.41347648 13.51006131 -4.2356462 9.77456816 -2.4375 5.625 C-1.98246094 4.56539062 -1.52742187 3.50578125 -1.05859375 2.4140625 C-0.70925781 1.61742187 -0.35992187 0.82078125 0 0 Z " fill="#619BFE" transform="translate(199,160)"/>
<path d="M0 0 C2.56679483 2.56679483 3.33348554 5.05010682 4.625 8.4375 C5.07101563 9.59121094 5.51703125 10.74492187 5.9765625 11.93359375 C7 15 7 15 7 18 C6.34 18 5.68 18 5 18 C3.02 12.39 1.04 6.78 -1 1 C-0.67 0.67 -0.34 0.34 0 0 Z " fill="#6498FE" transform="translate(223,169)"/>
<path d="M0 0 C1.7290631 3.4581262 0.64086357 7.28299132 0 11 C-1.0625 14.0625 -1.0625 14.0625 -2 16 C-2.66 16 -3.32 16 -4 16 C-2.28571429 2.28571429 -2.28571429 2.28571429 0 0 Z " fill="#4EB3FC" transform="translate(190,110)"/>
<path d="M0 0 C1.42600325 4.27800976 -0.54362936 6.86765922 -2.4375 10.6875 C-2.77587891 11.38939453 -3.11425781 12.09128906 -3.46289062 12.81445312 C-4.29981348 14.54723706 -5.14877393 16.27419752 -6 18 C-6.71484375 16.453125 -6.71484375 16.453125 -7 14 C-5.94608774 11.46142115 -4.86034426 9.15504473 -3.5625 6.75 C-3.22412109 6.1003125 -2.88574219 5.450625 -2.53710938 4.78125 C-1.70213113 3.18185506 -0.85246886 1.59014141 0 0 Z " fill="#6F70FE" transform="translate(154,245)"/>
<path d="M0 0 C0.66 0 1.32 0 2 0 C0.43551329 5.6143991 -1.16395187 10.86810338 -4 16 C-5.16161779 13.13421241 -4.9946154 11.98369837 -4.00390625 8.984375 C-3.52824219 7.91703125 -3.05257812 6.8496875 -2.5625 5.75 C-2.08941406 4.67234375 -1.61632812 3.5946875 -1.12890625 2.484375 C-0.75636719 1.66453125 -0.38382813 0.8446875 0 0 Z " fill="#6A77FF" transform="translate(143,227)"/>
<path d="M0 0 C0.99 0 1.98 0 3 0 C2.27991594 4.60853797 0.68704061 8.67237409 -1 13 C-3 10 -3 10 -2.5390625 7.51953125 C-2.23742187 6.62621094 -1.93578125 5.73289062 -1.625 4.8125 C-1.32851562 3.91144531 -1.03203125 3.01039062 -0.7265625 2.08203125 C-0.48679688 1.39496094 -0.24703125 0.70789063 0 0 Z " fill="#4BB7FC" transform="translate(172,112)"/>
<path d="M0 0 C0.66 0 1.32 0 2 0 C1.43174347 5.54050113 -0.62886517 10.03715966 -3 15 C-3.33 15 -3.66 15 -4 15 C-3.43179252 9.54520815 -2.05362055 5.08940744 0 0 Z " fill="#50E5FF" transform="translate(182,86)"/>
<path d="M0 0 C0.66 0.66 1.32 1.32 2 2 C0.875 4.5 0.875 4.5 -1 7 C-4.1875 7.3125 -4.1875 7.3125 -7 7 C-7.33 6.34 -7.66 5.68 -8 5 C-7.34 4.34 -6.68 3.68 -6 3 C-5.01 3.33 -4.02 3.66 -3 4 C-2.01 2.68 -1.02 1.36 0 0 Z " fill="#614FFD" transform="translate(263,263)"/>
<path d="M0 0 C0.66 0 1.32 0 2 0 C2.66 1.32 3.32 2.64 4 4 C4.66 3.67 5.32 3.34 6 3 C6.33 4.32 6.66 5.64 7 7 C6.01 7.33 5.02 7.66 4 8 C3.01 7.34 2.02 6.68 1 6 C1.33 5.67 1.66 5.34 2 5 C0.68 4.01 -0.64 3.02 -2 2 C-1.34 1.34 -0.68 0.68 0 0 Z " fill="#5D3DFC" transform="translate(292,298)"/>
<path d="M0 0 C2.89932357 2.39509338 3.50168276 4.31245243 4 8 C3.01 8.66 2.02 9.32 1 10 C0 9 0 9 -0.0625 6.4375 C-0.041875 5.633125 -0.02125 4.82875 0 4 C-0.66 4 -1.32 4 -2 4 C-2 3.34 -2 2.68 -2 2 C-1.34 2 -0.68 2 0 2 C0 1.34 0 0.68 0 0 Z " fill="#5955FE" transform="translate(131,255)"/>
<path d="M0 0 C0.66 0.33 1.32 0.66 2 1 C1.57630928 2.6286551 1.1355377 4.25287378 0.6875 5.875 C0.44386719 6.77992188 0.20023438 7.68484375 -0.05078125 8.6171875 C-1 11 -1 11 -4 13 C-3.40895235 8.15340923 -2.02055843 4.39251833 0 0 Z " fill="#6A6FFE" transform="translate(136,244)"/>
<path d="M0 0 C4.05945076 3.74539583 6.78815487 8.45785844 7.25 14 C7.1675 14.66 7.085 15.32 7 16 C3.26170422 11.70095985 0 5.75071925 0 0 Z " fill="#6E6FFE" transform="translate(245,224)"/>
<path d="M0 0 C0.66 0 1.32 0 2 0 C1.57316761 1.58624235 1.13303842 3.1689098 0.6875 4.75 C0.44386719 5.63171875 0.20023438 6.5134375 -0.05078125 7.421875 C-1.02125331 10.05772505 -2.21005644 11.85407326 -4 14 C-3.46148032 8.72250715 -2.22656164 4.74354436 0 0 Z " fill="#618FFF" transform="translate(145,182)"/>
<path d="M0 0 C1.62463842 -0.05395478 3.24978541 -0.09277195 4.875 -0.125 C5.77992188 -0.14820313 6.68484375 -0.17140625 7.6171875 -0.1953125 C10 0 10 0 12 2 C9.8125 3.125 9.8125 3.125 7 4 C4.3125 3.0625 4.3125 3.0625 2 2 C1.01 2.495 1.01 2.495 0 3 C0 2.01 0 1.02 0 0 Z " fill="#5261FA" transform="translate(165,224)"/>
<path d="M0 0 C3.15702316 3.90869534 6 7.8614939 6 13 C5.34 13 4.68 13 4 13 C3.32404685 11.58774074 2.65959941 10.16997095 2 8.75 C1.62875 7.96109375 1.2575 7.1721875 0.875 6.359375 C0 4 0 4 0 0 Z " fill="#6F79FE" transform="translate(239,210)"/>
<path d="M0 0 C0.66 0.66 1.32 1.32 2 2 C0.90554162 2.86657116 -0.20097781 3.71792724 -1.3125 4.5625 C-1.92738281 5.03816406 -2.54226562 5.51382812 -3.17578125 6.00390625 C-3.77777344 6.33261719 -4.37976563 6.66132813 -5 7 C-5.99 6.67 -6.98 6.34 -8 6 C-6.68 5.34 -5.36 4.68 -4 4 C-4 3.34 -4 2.68 -4 2 C-2.68 1.34 -1.36 0.68 0 0 Z " fill="#6542FE" transform="translate(115,293)"/>
<path d="M0 0 C0.66 0 1.32 0 2 0 C1.33501617 4.38889325 -0.18757677 7.9811485 -2 12 C-3.12377697 8.69564916 -2.89554742 6.9493138 -1.5625 3.75 C-1.27503906 3.04359375 -0.98757812 2.3371875 -0.69140625 1.609375 C-0.46324219 1.07828125 -0.23507813 0.5471875 0 0 Z " fill="#4AEEFF" transform="translate(190,66)"/>
<path d="M0 0 C2.97903734 2.97903734 4 5.80285329 4 10 C3.34 10 2.68 10 2 10 C1.46987262 8.71211992 0.9511671 7.41953322 0.4375 6.125 C0.14746094 5.40570313 -0.14257812 4.68640625 -0.44140625 3.9453125 C-1 2 -1 2 0 0 Z " fill="#5CA0FE" transform="translate(239,159)"/>
<path d="M0 0 C0.66 0.99 1.32 1.98 2 3 C1.01 4.98 0.02 6.96 -1 9 C-1.66 9 -2.32 9 -3 9 C-2.30058404 5.85262818 -1.23921302 2.97411124 0 0 Z " fill="#6B60FD" transform="translate(146,261)"/>
<path d="M0 0 C0.6875 1.625 0.6875 1.625 1 4 C-0.4375 7.25 -0.4375 7.25 -2 10 C-2.6875 8.375 -2.6875 8.375 -3 6 C-1.5625 2.75 -1.5625 2.75 0 0 Z " fill="#63B3FE" transform="translate(182,135)"/>
</svg>
